<svg width="84" height="84" viewBox="0 0 84 84" fill="none" xmlns="http://www.w3.org/2000/svg">
<circle cx="42" cy="42" r="32" fill="#004A6D"/>
<circle cx="42" cy="42" r="31.5" stroke="white" stroke-opacity="0.24"/>
<g filter="url(#filter0_d_1_3211)">
<rect x="20" y="20" width="44" height="44" rx="22" fill="white" fill-opacity="0.06" shape-rendering="crispEdges"/>
<rect x="20.25" y="20.25" width="43.5" height="43.5" rx="21.75" stroke="white" stroke-opacity="0.12" stroke-width="0.5" shape-rendering="crispEdges"/>
<g clip-path="url(#clip0_1_3211)">
<path d="M47.9589 37.6667C50.352 37.6667 52.2922 39.6069 52.2922 42C52.2922 44.3931 50.352 46.3333 47.9589 46.3333C45.5658 46.3333 43.6256 44.3931 43.6256 42C43.6256 39.6069 45.5658 37.6667 47.9589 37.6667ZM42.0006 37.6667C44.3936 37.6667 46.3339 35.7264 46.3339 33.3333C46.3339 30.9402 44.3936 29 42.0006 29C39.6075 29 37.6672 30.9402 37.6672 33.3333C37.6672 35.7264 39.6075 37.6667 42.0006 37.6667ZM36.0422 46.3333C38.4353 46.3333 40.3756 44.3931 40.3756 42C40.3756 39.6069 38.4353 37.6667 36.0422 37.6667C33.6491 37.6667 31.7089 39.6069 31.7089 42C31.7089 44.3931 33.6491 46.3333 36.0422 46.3333ZM54.9507 52.9753C54.1209 49.7025 51.1352 47.4167 47.6881 47.4167C45.4326 47.4167 43.3872 48.4079 42.0006 50.0037C40.615 48.409 38.5696 47.4167 36.3131 47.4167C32.867 47.4167 29.8802 49.7025 29.0504 52.9753C28.8294 53.8452 29.3559 54.7292 30.2258 54.9502C31.0968 55.1723 31.9808 54.6447 32.2007 53.7747C32.4423 52.8214 33.0219 52.0241 33.7932 51.4738L35.3272 53.4389C35.8375 54.077 36.8081 54.077 37.3195 53.4389L38.8665 51.4954C39.6216 52.0457 40.1871 52.8355 40.4254 53.7758C40.4286 53.7899 40.7211 55.0022 42.0016 55.0022C43.2821 55.0022 43.5725 53.791 43.5757 53.7758C43.8173 52.8225 44.3969 52.0263 45.1682 51.4748L46.7022 53.44C47.2125 54.0781 48.1831 54.0781 48.6945 53.44L50.2415 51.4965C50.9976 52.0468 51.5621 52.8366 51.8004 53.7769C52.0203 54.6468 52.9097 55.1733 53.7742 54.9523C54.6452 54.7313 55.1706 53.8473 54.9507 52.9774V52.9753Z" fill="white"/>
</g>
</g>
<defs>
<filter id="filter0_d_1_3211" x="0" y="0" width="84" height="84" filterUnits="userSpaceOnUse" color-interpolation-filters="sRGB">
<feFlood flood-opacity="0" result="BackgroundImageFix"/>
<feColorMatrix in="SourceAlpha" type="matrix" values="0 0 0 0 0 0 0 0 0 0 0 0 0 0 0 0 0 0 127 0" result="hardAlpha"/>
<feOffset/>
<feGaussianBlur stdDeviation="10"/>
<feComposite in2="hardAlpha" operator="out"/>
<feColorMatrix type="matrix" values="0 0 0 0 1 0 0 0 0 1 0 0 0 0 1 0 0 0 0.05 0"/>
<feBlend mode="normal" in2="BackgroundImageFix" result="effect1_dropShadow_1_3211"/>
<feBlend mode="normal" in="SourceGraphic" in2="effect1_dropShadow_1_3211" result="shape"/>
</filter>
<clipPath id="clip0_1_3211">
<rect width="26" height="26" fill="white" transform="translate(29 29)"/>
</clipPath>
</defs>
</svg>
